# xmcd
#
# Track frame offsets: 
#        150
#        15706
#        30107
#        44797
#        60356
#        75581
#        93819
#        110862
#        125281
#        149806
#        157412
#        172215
#        196066
#        211405
#        225497
#
# Disc length: 3301 seconds
#
# Revision: 0
# Processed by: cddbd v1.5PL3 Copyright (c) Steve Scherf et al.
# Submitted via: ExactAudioCopy v0.95a4
#
DISCID=ce0ce30f
DTITLE=Steve Earle and Del McCoury Band - Malmö - 1999.05.11 [Disc1]
DYEAR=1999
DGENRE=Bluegrass
TTITLE0=Texas Eagel
TTITLE1=Yours Forever Blue
TTITLE2=My Old Friend The Blues
TTITLE3=Graveyard Shift
TTITLE4=Outlaw Honeymoon
TTITLE5=Dixieland
TTITLE6=No Words
TTITLE7=Harlan Man
TTITLE8=The Mountain
TTITLE9=Band Introductions
TTITLE10=I Still Carry You Around
TTITLE11=Taney Town
TTITLE12=That's All Right
TTITLE13=Halo Around The Moon
TTITLE14=Carrie Brown
EXTD=
EXTT0=
EXTT1=
EXTT2=
EXTT3=
EXTT4=
EXTT5=
EXTT6=
EXTT7=
EXTT8=
EXTT9=
EXTT10=
EXTT11=
EXTT12=
EXTT13=
EXTT14=
PLAYORDER=
